<?xml version="1.0" encoding="utf-8"?>
<!-- Generator: Adobe Illustrator 16.0.3, SVG Export Plug-In . SVG Version: 6.00 Build 0)  -->
<!DOCTYPE svg PUBLIC "-//W3C//DTD SVG 1.1//EN" "http://www.w3.org/Graphics/SVG/1.1/DTD/svg11.dtd">
<svg version="1.1" id="Ebene_1" xmlns="http://www.w3.org/2000/svg" xmlns:xlink="http://www.w3.org/1999/xlink" x="0px" y="0px"
	 width="491.741px" height="526.047px" viewBox="0 0 491.741 526.047" enable-background="new 0 0 491.741 526.047"
	 xml:space="preserve">
<g id="_x32_5">
	<path fill="#FFFFFF" d="M269.093,149.772l-66.603,32.941c-1.694,0.847-2.624,2.436-2.062,3.561c0.562,1.148,2.371,7.715,4.09,6.884
		l64.574-31.938l31.481-15.57l17.664-8.75c1.679-0.815,2.591-8.75,2.037-9.908c-0.554-1.124-2.396-1.353-4.091-0.497l-15.61,7.708
		L269.093,149.772z"/>
	<polygon fill="#FFFFFF" points="204.846,271.807 257.36,297.064 264.481,284.509 211.135,258.949 	"/>
	<path fill="#FFFFFF" d="M245.868,4.191c-133.628,0-241.95,94.283-241.95,210.509c0,116.307,108.322,210.548,241.95,210.548
		c7.728,0,15.387-0.375,22.915-0.97c-0.39,54.858-63.481,97.576-63.481,97.576c157.847-52.991,219.814-148.834,247.735-192.331
		c21.938-41.864,34.786-72.212,34.786-114.824C487.823,98.475,379.493,4.191,245.868,4.191z M168.833,243.494h-44.584v-60.365
		l44.584-0.033V243.494z M346.104,323.649l-45.529-21.86l-13.851-6.632l-14.534,24.215c-0.832,1.32-1.924,2.322-3.097,3.186
		c-2.103,1.581-4.627,2.501-7.251,2.501c-1.777,0-3.585-0.398-5.297-1.213l-74.343-35.744c-3.08-1.483-5.394-4.18-6.379-7.462
		c-1.002-3.269-0.57-6.821,1.133-9.771l12.026-22.561l-12.694-4.994v-60.512l92.805-46.841l31.481-15.879l45.529-22.976V323.649z"/>
</g>
</svg>
