<?xml version="1.0" encoding="utf-8"?>
<!-- Generator: Adobe Illustrator 15.1.0, SVG Export Plug-In . SVG Version: 6.00 Build 0)  -->
<!DOCTYPE svg PUBLIC "-//W3C//DTD SVG 1.1//EN" "http://www.w3.org/Graphics/SVG/1.1/DTD/svg11.dtd">
<svg version="1.1" id="Ebene_1" xmlns="http://www.w3.org/2000/svg" xmlns:xlink="http://www.w3.org/1999/xlink" x="0px" y="0px"
	 width="99.631px" height="59.035px" viewBox="0 0 99.631 59.035" enable-background="new 0 0 99.631 59.035" xml:space="preserve">
<g>
	<g>
		<g>
			<path fill="none" d="M44.547,24.613v1.203C44.578,25.304,44.561,24.901,44.547,24.613z"/>
			
				<radialGradient id="SVGID_1_" cx="329.8955" cy="-389.9233" r="6.134" gradientTransform="matrix(1 0 0 -1 -289.6602 -352.9258)" gradientUnits="userSpaceOnUse">
				<stop  offset="0" style="stop-color:#F5BF82"/>
				<stop  offset="1" style="stop-color:#EB9127"/>
			</radialGradient>
			<path fill="url(#SVGID_1_)" d="M35.922,44.525c0.859-0.158,1.642-0.373,2.339-0.652c1.582-0.637,2.838-1.5,3.767-2.594
				c0.93-1.092,1.581-2.372,1.956-3.84c0.376-1.467,0.563-3.032,0.563-4.696v-3.272C43.938,37.142,40.369,42.162,35.922,44.525z"/>
			
				<radialGradient id="SVGID_2_" cx="327.6406" cy="-382.8467" r="7.7228" gradientTransform="matrix(1 0 0 -1 -289.6602 -352.9258)" gradientUnits="userSpaceOnUse">
				<stop  offset="0" style="stop-color:#F5BF82"/>
				<stop  offset="1" style="stop-color:#EB9127"/>
			</radialGradient>
			<path fill="url(#SVGID_2_)" d="M35.791,38.078c3.216-1.504,3.521-2.053,5.839-4.727c2.328-3.434,2.832-5.986,2.919-7.535v-1.203
				v-3.419c-0.77,3.534-3.201,7.044-7.631,9.641v1.518c0,2.152-0.409,3.686-1.223,4.599c-0.816,0.913-2.152,1.368-4.012,1.368
				c-0.091,0-0.18-0.002-0.27-0.004C32.708,38.743,34.141,38.849,35.791,38.078z"/>
			
				<radialGradient id="SVGID_3_" cx="333.2178" cy="-370.7852" r="10.7687" gradientTransform="matrix(1 0 0 -1 -289.6602 -352.9258)" gradientUnits="userSpaceOnUse">
				<stop  offset="0" style="stop-color:#A38DC2"/>
				<stop  offset="1" style="stop-color:#6B4796"/>
			</radialGradient>
			<path fill="url(#SVGID_3_)" d="M41.058,10.242h-4.141v7.055v11.671v1.868c4.43-2.597,6.861-6.107,7.631-9.641v-4.99v-5.963
				H41.058z"/>
			
				<radialGradient id="SVGID_4_" cx="323.2256" cy="-388.2466" r="10.2705" gradientTransform="matrix(1 0 0 -1 -289.6602 -352.9258)" gradientUnits="userSpaceOnUse">
				<stop  offset="0" style="stop-color:#E585B5"/>
				<stop  offset="1" style="stop-color:#D6007F"/>
			</radialGradient>
			<path fill="url(#SVGID_4_)" d="M41.628,33.351c-2.318,2.674-2.623,3.223-5.839,4.727c-1.649,0.771-3.082,0.666-4.377,0.236
				c-1.169-0.027-2.253-0.235-3.253-0.629c-1.075-0.424-2.087-0.914-3.033-1.468l-2.544,5.919c1.044,0.717,2.364,1.344,3.962,1.883
				c1.599,0.539,3.507,0.807,5.725,0.807c1.35,0,2.564-0.102,3.653-0.301c4.445-2.363,8.016-7.383,8.625-15.054v-3.655
				C44.46,27.365,43.958,29.917,41.628,33.351z"/>
		</g>
		<g>
			<path fill="none" d="M69.419,38.076v-0.055c-0.043,0.026-0.086,0.053-0.129,0.08C69.333,38.091,69.378,38.083,69.419,38.076z"/>
			<g>
				
					<radialGradient id="SVGID_5_" cx="364.9375" cy="-365.562" r="7.328" gradientTransform="matrix(1 0 0 -1 -289.6602 -352.9258)" gradientUnits="userSpaceOnUse">
					<stop  offset="0" style="stop-color:#F5BF82"/>
					<stop  offset="1" style="stop-color:#EB9127"/>
				</radialGradient>
				<path fill="url(#SVGID_5_)" d="M75.265,11.416c-0.604-0.293-1.371-0.579-2.301-0.856s-2.037-0.521-3.326-0.734
					c-1.287-0.211-2.73-0.318-4.328-0.318c-0.107,0-0.215,0.005-0.32,0.006c-0.354,0.006-0.703,0.021-1.051,0.044
					c-1.842,0.124-3.596,0.496-5.258,1.125c-1.154,0.436-2.223,0.99-3.209,1.654c1.264-0.623,2.516-1.08,3.742-1.389
					c3.584-0.902,6.949-0.522,9.746,0.781c2.455,1.145,4.475,2.999,5.814,5.33l1.787-4.958
					C76.298,11.938,75.868,11.708,75.265,11.416z"/>
				<g>
					<path fill="none" d="M61.907,15.49c0.189,0.066,0.393,0.138,0.604,0.214C62.308,15.625,62.106,15.556,61.907,15.49z"/>
					
						<radialGradient id="SVGID_6_" cx="347.4971" cy="-377.1606" r="7.945" gradientTransform="matrix(1 0 0 -1 -289.6602 -352.9258)" gradientUnits="userSpaceOnUse">
						<stop  offset="0" style="stop-color:#A38DC2"/>
						<stop  offset="1" style="stop-color:#6B4796"/>
					</radialGradient>
					<path fill="url(#SVGID_6_)" d="M63.815,16.354c-0.381-0.249-0.809-0.47-1.307-0.649C63.003,15.895,63.435,16.104,63.815,16.354
						z"/>
					
						<radialGradient id="SVGID_7_" cx="355.293" cy="-365.5664" r="8.7272" gradientTransform="matrix(1 0 0 -1 -289.6602 -352.9258)" gradientUnits="userSpaceOnUse">
						<stop  offset="0" style="stop-color:#E585B5"/>
						<stop  offset="1" style="stop-color:#D6007F"/>
					</radialGradient>
					<path fill="url(#SVGID_7_)" d="M63.815,16.354c-0.381-0.249-0.809-0.47-1.307-0.649C63.003,15.895,63.435,16.104,63.815,16.354
						z"/>
				</g>
			</g>
			<g>
				
					<radialGradient id="SVGID_8_" cx="356.0596" cy="-392.4355" r="8.4168" gradientTransform="matrix(1 0 0 -1 -289.6602 -352.9258)" gradientUnits="userSpaceOnUse">
					<stop  offset="0" style="stop-color:#F5BF82"/>
					<stop  offset="1" style="stop-color:#EB9127"/>
				</radialGradient>
				<path fill="url(#SVGID_8_)" d="M55.749,42.445c0.775,0.467,1.605,0.873,2.492,1.207c2.07,0.783,4.379,1.174,6.922,1.174
					c2.967,0,5.463-0.205,7.482-0.611c0.021-0.004,0.041-0.008,0.063-0.012c1.475-0.299,2.65-0.584,3.527-0.855
					c0.309-0.096,0.58-0.189,0.814-0.281v-1.775v-5.157C71.317,44.884,57.962,42.843,55.749,42.445z"/>
				
					<radialGradient id="SVGID_9_" cx="352.3789" cy="-387.5371" r="11.7189" gradientTransform="matrix(1 0 0 -1 -289.6602 -352.9258)" gradientUnits="userSpaceOnUse">
					<stop  offset="0" style="stop-color:#E585B5"/>
					<stop  offset="1" style="stop-color:#D6007F"/>
				</radialGradient>
				<path fill="url(#SVGID_9_)" d="M71.778,26.288h-2.359v2.518v5.961v3.254v0.056c-0.041,0.008-0.086,0.016-0.129,0.024
					c-6.451,4.057-16.145,1.891-20.902-9.254c0.126,2.15,0.506,4.104,1.146,5.854c0.799,2.186,1.932,4.027,3.399,5.527
					c0.838,0.857,1.779,1.594,2.816,2.219c2.213,0.398,15.568,2.438,21.301-6.313v-1.938v-1.344v-6.563L71.778,26.288L71.778,26.288
					z"/>
			</g>
			<g>
				
					<radialGradient id="SVGID_10_" cx="347.4961" cy="-377.1724" r="7.9503" gradientTransform="matrix(1 0 0 -1 -289.6602 -352.9258)" gradientUnits="userSpaceOnUse">
					<stop  offset="0" style="stop-color:#A38DC2"/>
					<stop  offset="1" style="stop-color:#6B4796"/>
				</radialGradient>
				<path fill="url(#SVGID_10_)" d="M56.841,31.741c-0.393-1.353-0.586-2.862-0.586-4.524c0-2.33,0.365-4.323,1.098-5.981
					c0.344-0.779,0.77-1.484,1.273-2.115c1.18-1.47,2.908-2.392,5.184-2.766c-0.379-0.25-0.813-0.459-1.305-0.65
					c-0.213-0.077-0.414-0.148-0.605-0.214c-2.734-0.897-5.477-0.744-7.42-0.409c-2.895,4.116-3.742,10.224-0.723,17.357
					c1.141,0.595,2.443,1.08,3.895,1.334C57.325,33.148,57.052,32.474,56.841,31.741z"/>
				<g>
					<g>
						<path fill="none" d="M51.866,15.748c0.025-0.01,0.055-0.02,0.084-0.03C51.917,15.729,51.888,15.738,51.866,15.748z"/>
						
							<linearGradient id="SVGID_11_" gradientUnits="userSpaceOnUse" x1="341.6885" y1="-376.1016" x2="338.7314" y2="-375.2775" gradientTransform="matrix(1 0 0 -1 -289.6602 -352.9258)">
							<stop  offset="0" style="stop-color:#8769AC"/>
							<stop  offset="1" style="stop-color:#6B4796"/>
						</linearGradient>
						<path fill="url(#SVGID_11_)" d="M51.866,15.748c-0.883,1.164-1.621,2.473-2.209,3.934c-0.881,2.186-1.321,4.697-1.321,7.535
							c0,0.188,0.007,0.37,0.01,0.554c0.517,0.777,2.399,3.099,5.413,4.668c0.002,0,0.004,0.002,0.006,0.002
							c-3.021-7.134-2.174-13.244,0.721-17.36c-1.244,0.214-2.162,0.503-2.535,0.637C51.921,15.728,51.892,15.737,51.866,15.748z"/>
						
							<radialGradient id="SVGID_12_" cx="355.2715" cy="-368.5898" r="7.5586" gradientTransform="matrix(1 0 0 -1 -289.6602 -352.9258)" gradientUnits="userSpaceOnUse">
							<stop  offset="0" style="stop-color:#E585B5"/>
							<stop  offset="1" style="stop-color:#D6007F"/>
						</radialGradient>
						<path fill="url(#SVGID_12_)" d="M68.96,11.729c-2.797-1.303-6.162-1.683-9.746-0.781c-1.229,0.309-2.48,0.766-3.742,1.389
							c-0.785,0.527-1.52,1.122-2.197,1.792c-0.506,0.502-0.975,1.044-1.408,1.618c0.021-0.009,0.051-0.019,0.084-0.03
							c0.371-0.133,1.289-0.422,2.533-0.637h0.002c1.941-0.336,4.686-0.489,7.422,0.409c0.199,0.066,0.4,0.136,0.604,0.214
							c0.496,0.18,0.926,0.4,1.305,0.649c0.777-0.127,1.617-0.192,2.521-0.192c1.025,0,2.004,0.085,2.93,0.253
							c0.516,0.094,1.016,0.212,1.498,0.358c1.354,0.409,2.551,0.889,3.596,1.443l0.416-1.156
							C73.435,14.729,71.417,12.874,68.96,11.729z"/>
					</g>
					
						<radialGradient id="SVGID_13_" cx="348.4775" cy="-386.8091" r="8.5748" gradientTransform="matrix(1 0 0 -1 -289.6602 -352.9258)" gradientUnits="userSpaceOnUse">
						<stop  offset="0" style="stop-color:#F5BF82"/>
						<stop  offset="1" style="stop-color:#EB9127"/>
					</radialGradient>
					<path fill="url(#SVGID_13_)" d="M67.829,38.271c-0.605,0.033-1.33,0.049-2.178,0.049c-1.564,0-2.936-0.27-4.107-0.807
						c-1.174-0.539-2.152-1.297-2.938-2.275c-0.357-0.449-0.674-0.938-0.949-1.467c-0.002,0-0.004,0-0.006,0
						c-1.449-0.252-2.75-0.737-3.889-1.33c-0.002-0.002-0.004-0.002-0.006-0.004c-3.012-1.568-4.896-3.891-5.413-4.667
						c0.007,0.363,0.021,0.722,0.042,1.075c4.759,11.146,14.451,13.313,20.904,9.255C68.862,38.183,68.378,38.243,67.829,38.271z"/>
				</g>
			</g>
		</g>
	</g>
</g>
</svg>
